<?xml version="1.0" encoding="UTF-8" standalone="no"?>
<!-- Created with Inkscape (http://www.inkscape.org/) -->

<svg
   width="210mm"
   height="297mm"
   viewBox="0 0 210 297"
   version="1.1"
   id="svg1"
   xml:space="preserve"
   inkscape:version="1.4 (e7c3feb1, 2024-10-09)"
   sodipodi:docname="secret-sky.svg"
   inkscape:export-filename="secret-sky.png"
   inkscape:export-xdpi="96"
   inkscape:export-ydpi="96"
   xmlns:inkscape="http://www.inkscape.org/namespaces/inkscape"
   xmlns:sodipodi="http://sodipodi.sourceforge.net/DTD/sodipodi-0.dtd"
   xmlns="http://www.w3.org/2000/svg"
   xmlns:svg="http://www.w3.org/2000/svg"><sodipodi:namedview
     id="namedview1"
     pagecolor="#ffffff"
     bordercolor="#000000"
     borderopacity="0.25"
     inkscape:showpageshadow="2"
     inkscape:pageopacity="0.0"
     inkscape:pagecheckerboard="0"
     inkscape:deskcolor="#d1d1d1"
     inkscape:document-units="mm"
     inkscape:zoom="0.88818064"
     inkscape:cx="324.82131"
     inkscape:cy="269.65235"
     inkscape:window-width="1440"
     inkscape:window-height="900"
     inkscape:window-x="0"
     inkscape:window-y="0"
     inkscape:window-maximized="0"
     inkscape:current-layer="layer1" /><defs
     id="defs1" /><g
     inkscape:label="Layer 1"
     inkscape:groupmode="layer"
     id="layer1"
     style="display:inline"><path
       style="display:inline;fill:#999999;fill-rule:evenodd;stroke-width:5.29167;stroke-linecap:round;stroke-linejoin:round"
       d="M 39.215,50 H 54.214999 V 35 c 0,-13.951146 12.465337,-20 22.499999,-20 10.034661,0 22.499998,6.048854 22.499998,20 V 50 H 114.21501 V 35 C 114.21501,17.600162 102.55035,0 76.714998,0 50.879657,0 39.215,15.792554 39.215,35 Z"
       id="path2"
       sodipodi:nodetypes="ccszsccszsc" /><path
       d="m 33.264298,27.436073 c 17.5937,13.20827 36.5178,39.98913 43.4657,54.36129 6.9485,-14.37111 25.871502,-41.15329 43.465802,-54.36129 12.6947,-9.53055 33.2634,-16.90476 33.2634,6.56035 0,4.6863 -2.6868,39.36735 -4.2627,44.99768 -5.4777,19.57494 -25.4381,24.567617 -43.1932,21.545817 31.0356,5.28214 38.9308,22.77851 21.8802,40.27487 -32.382302,33.22903 -46.542802,-8.33728 -50.172902,-18.98808 -0.6652,-1.95255 -0.9764,-2.86597 -0.981,-2.08926 0,-0.77674 -0.3158,0.13671 -0.981,2.08926 -3.6285,10.6508 -17.7887,52.21816 -50.172898,18.98808 C 8.5249,123.31843 16.4198,105.821 47.455898,100.53992 29.700298,103.56172 9.7396,98.569013 4.2627,78.994103 2.6868,73.363243 0,38.682193 0,33.996423 c 0,-23.46511 20.5692,-16.0909 33.263398,-6.56035 z"
       fill="#1185fe"
       id="path1"
       style="stroke-width:0.264583" /></g></svg>
